<svg width="75" height="75" viewBox="0 0 75 75" fill="none" xmlns="http://www.w3.org/2000/svg">
<rect width="75" height="75" rx="5" fill="#F9F9F9"/>
<rect x="0.271003" y="0.271003" width="74.458" height="74.458" rx="4.729" stroke="black" stroke-opacity="0.2" stroke-width="0.542006"/>
<path d="M35.292 27.896C35.416 28.02 35.498 28.15 35.55 28.246C35.629 28.391 35.688 28.546 35.735 28.686C35.825 28.954 35.917 29.311 36.022 29.718L39.702 43.958L41.31 37.9L41.323 37.85L41.326 37.839C41.37 37.669 41.443 37.385 41.609 37.146C41.7599 36.9261 41.9666 36.7504 42.208 36.637C42.399 36.547 42.577 36.52 42.708 36.51C42.813 36.5 42.928 36.501 43.016 36.501H46C46.2652 36.501 46.5196 36.6064 46.7071 36.7939C46.8946 36.9814 47 37.2358 47 37.501C47 37.7662 46.8946 38.0206 46.7071 38.2081C46.5196 38.3957 46.2652 38.501 46 38.501H43.22L41.416 45.296C41.308 45.702 41.214 46.058 41.122 46.326C41.0711 46.4775 41.0083 46.6246 40.934 46.766C40.8259 46.9676 40.67 47.1396 40.48 47.267C40.2447 47.4201 39.9698 47.5011 39.6891 47.5001C39.4084 47.499 39.1341 47.4159 38.9 47.261C38.711 47.132 38.5565 46.9586 38.45 46.756C38.3767 46.6142 38.3148 46.4667 38.265 46.315C38.175 46.047 38.083 45.69 37.978 45.283L34.298 31.043L32.69 37.1L32.677 37.15L32.674 37.161C32.63 37.331 32.556 37.615 32.391 37.854C32.2401 38.0739 32.0334 38.2496 31.792 38.363C31.601 38.453 31.423 38.48 31.292 38.49C31.187 38.5 31.072 38.499 30.984 38.499H28C27.7348 38.499 27.4804 38.3937 27.2929 38.2061C27.1054 38.0186 27 37.7642 27 37.499C27 37.2338 27.1054 36.9794 27.2929 36.7919C27.4804 36.6044 27.7348 36.499 28 36.499H30.78L32.584 29.703C32.692 29.298 32.786 28.941 32.878 28.675C32.926 28.535 32.986 28.38 33.066 28.235C33.174 28.0331 33.3299 27.8607 33.52 27.733C33.7905 27.5567 34.1126 27.4768 34.4341 27.5062C34.7557 27.5356 35.0579 27.6736 35.292 27.896Z" fill="#FF5500"/>
</svg>
