<svg width="75" height="75" viewBox="0 0 75 75" fill="none" xmlns="http://www.w3.org/2000/svg">
<rect width="75" height="75" rx="5" fill="#F9F9F9"/>
<rect x="0.271003" y="0.271003" width="74.458" height="74.458" rx="4.729" stroke="black" stroke-opacity="0.2" stroke-width="0.542006"/>
<path d="M37.542 33.7083V30.4583L33.7503 32.6249H28.3337L24.542 30.4583V46.7083" stroke="#FF5500" stroke-width="0.666667" stroke-miterlimit="10" stroke-linecap="round" stroke-linejoin="round"/>
<path d="M37.542 33.7084L33.7503 35.8751H28.3337L24.542 33.7084M34.2649 38.8315L33.7503 39.1251H28.3337L24.542 36.9584M34.2649 42.0815L33.7503 42.3751H28.3337L24.542 40.2084M34.2649 45.3315L33.7503 45.6251H28.3337L24.542 43.4584M34.2649 48.5815L33.7503 48.8751H28.3337L24.542 46.7084M24.542 30.4584L28.3337 28.2917H33.7503L37.542 30.4584M49.4587 46.7084V36.9584L45.667 39.1251H40.2503L36.4587 36.9584V46.7084" stroke="#FF5500" stroke-width="0.666667" stroke-miterlimit="10" stroke-linecap="round" stroke-linejoin="round"/>
<path d="M49.459 40.2083L45.6673 42.375H40.2507L36.459 40.2083M49.459 43.4583L45.6673 45.625H40.2507L36.459 43.4583M49.459 46.7083L45.6673 48.875H40.2507L36.459 46.7083M36.459 36.9583L40.2507 34.7917H45.6673L49.459 36.9583M44.0423 26.125V27.2083M44.0423 31.5417V32.625M47.2923 29.375H46.209M41.8757 29.375H40.7923" stroke="#FF5500" stroke-width="0.666667" stroke-miterlimit="10" stroke-linecap="round" stroke-linejoin="round"/>
</svg>
