<svg width="75" height="75" viewBox="0 0 75 75" fill="none" xmlns="http://www.w3.org/2000/svg">
<rect width="75" height="75" rx="5" fill="#FF5500"/>
<rect x="0.271003" y="0.271003" width="74.458" height="74.458" rx="4.729" stroke="black" stroke-opacity="0.2" stroke-width="0.542006"/>
<path d="M30.2051 41.0161C30.9882 41.0161 31.8869 41.2818 32.6631 41.5415C33.0705 41.6778 33.4182 41.804 33.7559 41.9146C34.0877 42.0232 34.3491 42.0963 34.5361 42.1206H34.5371C35.3819 42.2323 37.0097 42.3228 38.4424 42.3853C39.1553 42.4163 39.8149 42.4404 40.2959 42.4565C40.5364 42.4646 40.7325 42.47 40.8682 42.4741C40.9359 42.4762 40.9887 42.478 41.0244 42.479C41.0423 42.4795 41.0563 42.4797 41.0654 42.48C41.0697 42.4801 41.073 42.4809 41.0752 42.481H41.0791L41.2734 42.4858L41.3809 42.6479L42.7051 44.6401L42.8965 44.9282L42.7354 45.0532C42.9197 44.9497 43.2431 44.7611 43.6504 44.5112C44.1702 44.1924 44.8087 43.7933 45.4297 43.4028C46.0505 43.0125 46.6533 42.6311 47.1006 42.3472C47.3241 42.2053 47.5089 42.0874 47.6377 42.0054C47.702 41.9644 47.7528 41.9325 47.7871 41.9106C47.8041 41.8998 47.8174 41.8918 47.8262 41.8862C47.8306 41.8834 47.8337 41.8808 47.8359 41.8794L47.8389 41.8774L48.0762 41.7261L48.2881 41.9106L50.1924 43.5747L50.5186 43.8608L50.1895 44.1421L49.9453 43.8579L50.1885 44.1431L50.1846 44.147C50.1815 44.1496 50.1769 44.1536 50.1709 44.1587C50.159 44.1688 50.1411 44.1833 50.1182 44.2026C50.072 44.2415 50.0033 44.2985 49.915 44.3716C49.7386 44.5178 49.4813 44.7286 49.1572 44.9868C48.5092 45.5032 47.5928 46.2117 46.5186 46.979C44.5103 48.4135 41.9283 50.0718 39.5078 51.063L39.0264 51.2515C38.7319 51.3622 38.0255 51.4984 37.251 51.606C36.4618 51.7155 35.5465 51.8032 34.8105 51.8032C34.535 51.8032 34.2764 51.7905 34.0547 51.7603C33.8471 51.7319 33.629 51.682 33.4609 51.5806V51.5815C29.79 49.4364 26.0149 49.067 23.8662 49.0669C23.3118 49.0698 22.8689 49.0957 22.5664 49.1206C22.4152 49.1331 22.2991 49.1448 22.2217 49.1538C22.183 49.1583 22.1537 49.1621 22.1348 49.1646C22.1254 49.1658 22.1186 49.1669 22.1143 49.1675C22.1121 49.1678 22.1102 49.1674 22.1094 49.1675V49.1685L21.6797 49.231V42.1235H22.2832C22.9869 42.1235 25.4316 42.044 29.5938 41.0835H29.5947C29.795 41.038 29.9997 41.0158 30.2051 41.0161ZM44.5244 39.9126L45.3564 40.4985L45.8115 40.8188L46.3652 40.5259L46.5557 40.4253L46.7393 40.5386L47.8232 41.2124L48.3447 41.5376L47.8174 41.853L43.4521 44.4663L43.167 44.6372L42.9639 44.3745L42.1143 43.2788L41.8516 42.9409L41.8281 42.9536L41.6367 42.7017L41.3574 42.3335C41.3098 42.332 41.2553 42.3314 41.1982 42.3296C41.0144 42.3238 40.7964 42.3161 40.6699 42.3101L40.5312 41.6206L39.3008 42.2046L39.2148 42.2456L39.1191 42.2397C38.974 42.2314 38.7142 42.2237 38.4424 42.2163C38.1764 42.2091 37.899 42.202 37.7314 42.1929L37.5918 41.48L40.9551 39.8862L41.0801 39.8267L41.2139 39.8628L42.1572 40.1206L43.0967 40.3774L44.1475 39.8804L44.3457 39.7866L44.5244 39.9126ZM34.8877 36.4399C35.4066 36.4337 35.9858 36.4955 36.5762 36.6509H36.5752C37.4825 36.8834 38.2518 37.2891 38.7783 37.7485L38.9893 37.9487L38.9902 37.9507C39.5095 38.4956 39.7497 39.0913 39.5469 39.6646L39.5459 39.6636C39.3569 40.2093 38.8135 40.5843 38.0527 40.7798C37.2781 40.9862 36.2683 40.9882 35.2363 40.7163V40.7153C34.1989 40.4435 33.3453 39.9522 32.8105 39.4175L32.8008 39.4077V39.4067C32.3105 38.8785 32.0507 38.2778 32.2646 37.7017H32.2637C32.4518 37.1464 32.9992 36.7751 33.7451 36.5854C34.0928 36.4954 34.4739 36.4462 34.8867 36.4399H34.8877ZM42.8789 30.9966C42.9597 30.9966 43.0598 30.9976 43.1748 31.0151C43.8796 31.0415 44.4219 31.2416 44.6465 31.6431L44.6865 31.7222C44.8642 32.1269 44.7195 32.6452 44.3213 33.146L44.3203 33.145C43.8852 33.698 43.1144 34.2702 42.166 34.6802L42.1641 34.6812C41.215 35.0852 40.2311 35.2713 39.4756 35.2261V35.2251C38.7518 35.193 38.2307 34.9735 38.0039 34.5923L38 34.5854C37.7621 34.166 37.9117 33.6228 38.3311 33.0952C38.7672 32.5292 39.5275 31.9643 40.4795 31.5493L40.4834 31.5474C41.3132 31.197 42.1738 31.0155 42.8691 30.9966L42.8789 30.9956V30.9966ZM36.1172 23.4077C36.5241 23.4077 36.9731 23.6157 37.4062 24.062H37.4053C37.8549 24.5057 38.2416 25.1701 38.4766 25.9438L38.5684 26.2837V26.2856C38.7805 27.2021 38.7251 28.0995 38.4717 28.7476L38.4727 28.7485C38.2397 29.3698 37.8511 29.7741 37.3818 29.8472L37.3809 29.8481C37.3781 29.8486 37.3749 29.8497 37.3721 29.8501L37.3711 29.8481C36.9363 29.9186 36.4218 29.7087 35.9355 29.2173C35.4202 28.7083 34.98 27.9027 34.7676 26.9888L34.7666 26.9858C34.5871 26.1803 34.5965 25.3983 34.7734 24.7769L34.8594 24.521C35.0979 23.8822 35.4993 23.5069 35.9385 23.4233V23.4224H35.9404C35.9414 23.4222 35.9424 23.4216 35.9434 23.4214V23.4224C36.0197 23.4078 36.0957 23.4077 36.1172 23.4077Z" stroke="white" stroke-width="0.75"/>
</svg>
