<svg width="75" height="75" viewBox="0 0 75 75" fill="none" xmlns="http://www.w3.org/2000/svg">
<rect width="75" height="75" rx="5" fill="#F9F9F9"/>
<rect x="0.271003" y="0.271003" width="74.458" height="74.458" rx="4.729" stroke="black" stroke-opacity="0.2" stroke-width="0.542006"/>
<path fill-rule="evenodd" clip-rule="evenodd" d="M48.3825 24.7081C48.0891 24.8236 43.4711 26.64 38.1203 28.7446C32.7695 30.8492 28.3351 32.6134 28.266 32.665C28.0409 32.833 27.9403 33.0163 27.9193 33.2967C27.8953 33.6156 28.0022 33.848 28.2664 34.0518C28.3612 34.1251 30.2681 35.0031 32.5038 36.0031C34.7396 37.0031 36.5944 37.847 36.6258 37.8785C36.6572 37.9099 37.5009 39.765 38.5007 42.0009C39.5005 44.2368 40.3786 46.1437 40.452 46.2386C40.8221 46.7169 41.4822 46.7171 41.8391 46.2391C41.8907 46.17 43.7416 41.518 45.9524 35.9013C48.8577 28.5198 49.9785 25.6166 49.9961 25.4272C50.0273 25.0903 49.8715 24.7923 49.5727 24.6171C49.2698 24.4396 49.0152 24.4591 48.3825 24.7081ZM48.0551 26.515C47.7699 27.2721 41.1436 44.0951 41.1198 44.1221C41.1016 44.1428 40.4103 42.6565 39.5836 40.8191L38.0804 37.4783L40.2312 35.3187C41.4142 34.1309 42.4059 33.0947 42.4352 33.016C42.5631 32.6719 42.4362 32.3096 42.1204 32.1171C41.938 32.0058 41.6284 31.9847 41.4561 32.0719C41.395 32.1027 40.3795 33.0912 39.1993 34.2684C37.1008 36.3616 37.0503 36.4077 36.9127 36.3549C36.3685 36.1465 30.3544 33.409 30.3837 33.3831C30.4039 33.3651 32.2612 32.6279 34.5109 31.7448C36.7606 30.8618 40.7163 29.3053 43.3014 28.286C45.8864 27.2668 48.0211 26.4313 48.045 26.4295C48.0689 26.4276 48.0735 26.4661 48.0551 26.515ZM28.0832 38.2953C28.0553 38.3022 27.9638 38.323 27.88 38.3415C27.7686 38.3661 27.2574 38.8432 25.9833 40.1118C25.0241 41.067 24.1809 41.9468 24.1097 42.067C24.0083 42.2379 23.9861 42.3297 24.0073 42.4882C24.0649 42.9178 24.3653 43.1618 24.7974 43.1298L25.0684 43.1098L26.8985 41.285C27.9153 40.271 28.7601 39.3875 28.7996 39.2966C28.8388 39.2067 28.8708 39.0726 28.8708 38.9986C28.8708 38.8287 28.6941 38.5102 28.5498 38.4201C28.4308 38.3459 28.1655 38.2748 28.0832 38.2953ZM33.4184 40.0902C33.3346 40.1431 32.0503 41.4064 30.5645 42.8976C27.7132 45.7591 27.7332 45.7357 27.7917 46.1341C27.8236 46.3516 28.0856 46.6253 28.3252 46.6915C28.7416 46.8065 28.6764 46.8612 31.6308 43.9149C33.1348 42.415 34.3981 41.1261 34.4381 41.0506C34.5409 40.8569 34.5293 40.5053 34.4145 40.3312C34.1958 39.9995 33.7379 39.8887 33.4184 40.0902ZM35.146 45.713C34.9589 45.809 31.5349 49.2137 31.4334 49.4046C31.3934 49.4802 31.3606 49.6565 31.3606 49.7967C31.3606 50.0083 31.3868 50.0815 31.5155 50.2281C31.701 50.4393 31.9584 50.5351 32.215 50.4884C32.3765 50.459 32.6522 50.2053 34.2223 48.6413C35.2234 47.6442 36.0751 46.7666 36.1151 46.6911C36.155 46.6156 36.1877 46.4516 36.1877 46.3266C36.1877 45.8233 35.6028 45.4787 35.146 45.713Z" fill="#FF5500"/>
</svg>
